G04 #@! TF.GenerationSoftware,KiCad,Pcbnew,6.0.2+dfsg-1*
G04 #@! TF.CreationDate,2025-06-22T13:16:20+00:00*
G04 #@! TF.ProjectId,MyCircuits,4d794369-7263-4756-9974-732e6b696361,rev?*
G04 #@! TF.SameCoordinates,Original*
G04 #@! TF.FileFunction,Soldermask,Top*
G04 #@! TF.FilePolarity,Negative*
%FSLAX46Y46*%
G04 Gerber Fmt 4.6, Leading zero omitted, Abs format (unit mm)*
G04 Created by KiCad (PCBNEW 6.0.2+dfsg-1) date 2025-06-22 13:16:20*
%MOMM*%
%LPD*%
G01*
G04 APERTURE LIST*
%ADD10C,2.500000*%
%ADD11C,1.600000*%
%ADD12O,1.600000X1.600000*%
%ADD13C,2.000000*%
%ADD14R,1.524000X1.524000*%
%ADD15C,1.524000*%
%ADD16R,1.800000X1.800000*%
%ADD17C,1.800000*%
%ADD18R,1.600000X1.600000*%
G04 APERTURE END LIST*
D10*
X195580000Y-127000000D03*
X83820000Y-127000000D03*
X83820000Y-53340000D03*
X195580000Y-53340000D03*
D11*
X181000000Y-67000000D03*
D12*
X181000000Y-74620000D03*
D13*
X190210000Y-80570000D03*
X190210000Y-87070000D03*
X185710000Y-87070000D03*
X185710000Y-80570000D03*
D11*
X180340000Y-92710000D03*
D12*
X180340000Y-100330000D03*
D11*
X175260000Y-100000000D03*
X175260000Y-95000000D03*
D13*
X190210000Y-93270000D03*
X190210000Y-99770000D03*
X185710000Y-99770000D03*
X185710000Y-93270000D03*
D11*
X180340000Y-80010000D03*
D12*
X180340000Y-87630000D03*
D11*
X175000000Y-87500000D03*
X175000000Y-82500000D03*
X173700000Y-60250000D03*
D12*
X181320000Y-60250000D03*
D13*
X190210000Y-74370000D03*
X190210000Y-67870000D03*
X185710000Y-67870000D03*
X185710000Y-74370000D03*
D11*
X175000000Y-75000000D03*
X175000000Y-70000000D03*
D14*
X107950000Y-111760000D03*
D15*
X110490000Y-111760000D03*
X113030000Y-111760000D03*
X115570000Y-111760000D03*
D16*
X190210000Y-60250000D03*
D17*
X187670000Y-60250000D03*
D18*
X162550000Y-99060000D03*
D12*
X162550000Y-96520000D03*
X162550000Y-93980000D03*
X162550000Y-91440000D03*
X162550000Y-88900000D03*
X162550000Y-86360000D03*
X162550000Y-83820000D03*
X162550000Y-81280000D03*
X162550000Y-78740000D03*
X162550000Y-76200000D03*
X162550000Y-73660000D03*
X162550000Y-71120000D03*
X162550000Y-68580000D03*
X162550000Y-66040000D03*
X162550000Y-63500000D03*
X147310000Y-63500000D03*
X147310000Y-66040000D03*
X147310000Y-68580000D03*
X147310000Y-71120000D03*
X147310000Y-73660000D03*
X147310000Y-76200000D03*
X147310000Y-78740000D03*
X147310000Y-81280000D03*
X147310000Y-83820000D03*
X147310000Y-86360000D03*
X147310000Y-88900000D03*
X147310000Y-91440000D03*
X147310000Y-93980000D03*
X147310000Y-96520000D03*
X147310000Y-99060000D03*
D14*
X149765000Y-118760000D03*
D15*
X149765000Y-116220000D03*
X149765000Y-113680000D03*
X149765000Y-111140000D03*
X149765000Y-108600000D03*
M02*
