G04 #@! TF.GenerationSoftware,KiCad,Pcbnew,6.0.2+dfsg-1*
G04 #@! TF.CreationDate,2025-06-22T13:16:20+00:00*
G04 #@! TF.ProjectId,MyCircuits,4d794369-7263-4756-9974-732e6b696361,rev?*
G04 #@! TF.SameCoordinates,Original*
G04 #@! TF.FileFunction,Legend,Bot*
G04 #@! TF.FilePolarity,Positive*
%FSLAX46Y46*%
G04 Gerber Fmt 4.6, Leading zero omitted, Abs format (unit mm)*
G04 Created by KiCad (PCBNEW 6.0.2+dfsg-1) date 2025-06-22 13:16:20*
%MOMM*%
%LPD*%
G01*
G04 APERTURE LIST*
%ADD10C,0.150000*%
%ADD11C,0.120000*%
%ADD12C,2.500000*%
%ADD13C,1.600000*%
%ADD14O,1.600000X1.600000*%
%ADD15C,2.000000*%
%ADD16R,1.524000X1.524000*%
%ADD17C,1.524000*%
%ADD18R,1.800000X1.800000*%
%ADD19C,1.800000*%
%ADD20R,1.600000X1.600000*%
G04 APERTURE END LIST*
D10*
X146172619Y-108361904D02*
X145363095Y-108361904D01*
X145267857Y-108314285D01*
X145220238Y-108266666D01*
X145172619Y-108171428D01*
X145172619Y-107980952D01*
X145220238Y-107885714D01*
X145267857Y-107838095D01*
X145363095Y-107790476D01*
X146172619Y-107790476D01*
X145172619Y-106790476D02*
X145172619Y-107361904D01*
X145172619Y-107076190D02*
X146172619Y-107076190D01*
X146029761Y-107171428D01*
X145934523Y-107266666D01*
X145886904Y-107361904D01*
X151275000Y-115816666D02*
X151375000Y-115783333D01*
X151541666Y-115783333D01*
X151608333Y-115816666D01*
X151641666Y-115850000D01*
X151675000Y-115916666D01*
X151675000Y-115983333D01*
X151641666Y-116050000D01*
X151608333Y-116083333D01*
X151541666Y-116116666D01*
X151408333Y-116150000D01*
X151341666Y-116183333D01*
X151308333Y-116216666D01*
X151275000Y-116283333D01*
X151275000Y-116350000D01*
X151308333Y-116416666D01*
X151341666Y-116450000D01*
X151408333Y-116483333D01*
X151575000Y-116483333D01*
X151675000Y-116450000D01*
X151975000Y-115783333D02*
X151975000Y-116483333D01*
X152141666Y-116483333D01*
X152241666Y-116450000D01*
X152308333Y-116383333D01*
X152341666Y-116316666D01*
X152375000Y-116183333D01*
X152375000Y-116083333D01*
X152341666Y-115950000D01*
X152308333Y-115883333D01*
X152241666Y-115816666D01*
X152141666Y-115783333D01*
X151975000Y-115783333D01*
X152641666Y-115983333D02*
X152975000Y-115983333D01*
X152575000Y-115783333D02*
X152808333Y-116483333D01*
X153041666Y-115783333D01*
X151591666Y-111450000D02*
X151525000Y-111483333D01*
X151425000Y-111483333D01*
X151325000Y-111450000D01*
X151258333Y-111383333D01*
X151225000Y-111316666D01*
X151191666Y-111183333D01*
X151191666Y-111083333D01*
X151225000Y-110950000D01*
X151258333Y-110883333D01*
X151325000Y-110816666D01*
X151425000Y-110783333D01*
X151491666Y-110783333D01*
X151591666Y-110816666D01*
X151625000Y-110850000D01*
X151625000Y-111083333D01*
X151491666Y-111083333D01*
X151925000Y-110783333D02*
X151925000Y-111483333D01*
X152325000Y-110783333D01*
X152325000Y-111483333D01*
X152658333Y-110783333D02*
X152658333Y-111483333D01*
X152825000Y-111483333D01*
X152925000Y-111450000D01*
X152991666Y-111383333D01*
X153025000Y-111316666D01*
X153058333Y-111183333D01*
X153058333Y-111083333D01*
X153025000Y-110950000D01*
X152991666Y-110883333D01*
X152925000Y-110816666D01*
X152825000Y-110783333D01*
X152658333Y-110783333D01*
X151491666Y-118283333D02*
X151491666Y-118983333D01*
X151825000Y-118283333D02*
X151825000Y-118983333D01*
X152225000Y-118283333D01*
X152225000Y-118983333D01*
X152458333Y-118983333D02*
X152858333Y-118983333D01*
X152658333Y-118283333D02*
X152658333Y-118983333D01*
X151291666Y-113316666D02*
X151391666Y-113283333D01*
X151558333Y-113283333D01*
X151625000Y-113316666D01*
X151658333Y-113350000D01*
X151691666Y-113416666D01*
X151691666Y-113483333D01*
X151658333Y-113550000D01*
X151625000Y-113583333D01*
X151558333Y-113616666D01*
X151425000Y-113650000D01*
X151358333Y-113683333D01*
X151325000Y-113716666D01*
X151291666Y-113783333D01*
X151291666Y-113850000D01*
X151325000Y-113916666D01*
X151358333Y-113950000D01*
X151425000Y-113983333D01*
X151591666Y-113983333D01*
X151691666Y-113950000D01*
X152391666Y-113350000D02*
X152358333Y-113316666D01*
X152258333Y-113283333D01*
X152191666Y-113283333D01*
X152091666Y-113316666D01*
X152025000Y-113383333D01*
X151991666Y-113450000D01*
X151958333Y-113583333D01*
X151958333Y-113683333D01*
X151991666Y-113816666D01*
X152025000Y-113883333D01*
X152091666Y-113950000D01*
X152191666Y-113983333D01*
X152258333Y-113983333D01*
X152358333Y-113950000D01*
X152391666Y-113916666D01*
X153025000Y-113283333D02*
X152691666Y-113283333D01*
X152691666Y-113983333D01*
X151191666Y-108983333D02*
X151425000Y-108283333D01*
X151658333Y-108983333D01*
X152291666Y-108350000D02*
X152258333Y-108316666D01*
X152158333Y-108283333D01*
X152091666Y-108283333D01*
X151991666Y-108316666D01*
X151925000Y-108383333D01*
X151891666Y-108450000D01*
X151858333Y-108583333D01*
X151858333Y-108683333D01*
X151891666Y-108816666D01*
X151925000Y-108883333D01*
X151991666Y-108950000D01*
X152091666Y-108983333D01*
X152158333Y-108983333D01*
X152258333Y-108950000D01*
X152291666Y-108916666D01*
X152991666Y-108350000D02*
X152958333Y-108316666D01*
X152858333Y-108283333D01*
X152791666Y-108283333D01*
X152691666Y-108316666D01*
X152625000Y-108383333D01*
X152591666Y-108450000D01*
X152558333Y-108583333D01*
X152558333Y-108683333D01*
X152591666Y-108816666D01*
X152625000Y-108883333D01*
X152691666Y-108950000D01*
X152791666Y-108983333D01*
X152858333Y-108983333D01*
X152958333Y-108950000D01*
X152991666Y-108916666D01*
D11*
X161225000Y-121300000D02*
X147225000Y-121300000D01*
X147225000Y-121300000D02*
X147225000Y-107300000D01*
X147225000Y-107300000D02*
X161225000Y-107300000D01*
X161225000Y-107300000D02*
X161225000Y-121300000D01*
%LPC*%
D12*
X195580000Y-127000000D03*
X83820000Y-127000000D03*
X83820000Y-53340000D03*
X195580000Y-53340000D03*
D13*
X181000000Y-67000000D03*
D14*
X181000000Y-74620000D03*
D15*
X190210000Y-80570000D03*
X190210000Y-87070000D03*
X185710000Y-87070000D03*
X185710000Y-80570000D03*
D13*
X180340000Y-92710000D03*
D14*
X180340000Y-100330000D03*
D13*
X175260000Y-100000000D03*
X175260000Y-95000000D03*
D15*
X190210000Y-93270000D03*
X190210000Y-99770000D03*
X185710000Y-99770000D03*
X185710000Y-93270000D03*
D13*
X180340000Y-80010000D03*
D14*
X180340000Y-87630000D03*
D13*
X175000000Y-87500000D03*
X175000000Y-82500000D03*
X173700000Y-60250000D03*
D14*
X181320000Y-60250000D03*
D15*
X190210000Y-74370000D03*
X190210000Y-67870000D03*
X185710000Y-67870000D03*
X185710000Y-74370000D03*
D13*
X175000000Y-75000000D03*
X175000000Y-70000000D03*
D16*
X107950000Y-111760000D03*
D17*
X110490000Y-111760000D03*
X113030000Y-111760000D03*
X115570000Y-111760000D03*
D18*
X190210000Y-60250000D03*
D19*
X187670000Y-60250000D03*
D20*
X162550000Y-99060000D03*
D14*
X162550000Y-96520000D03*
X162550000Y-93980000D03*
X162550000Y-91440000D03*
X162550000Y-88900000D03*
X162550000Y-86360000D03*
X162550000Y-83820000D03*
X162550000Y-81280000D03*
X162550000Y-78740000D03*
X162550000Y-76200000D03*
X162550000Y-73660000D03*
X162550000Y-71120000D03*
X162550000Y-68580000D03*
X162550000Y-66040000D03*
X162550000Y-63500000D03*
X147310000Y-63500000D03*
X147310000Y-66040000D03*
X147310000Y-68580000D03*
X147310000Y-71120000D03*
X147310000Y-73660000D03*
X147310000Y-76200000D03*
X147310000Y-78740000D03*
X147310000Y-81280000D03*
X147310000Y-83820000D03*
X147310000Y-86360000D03*
X147310000Y-88900000D03*
X147310000Y-91440000D03*
X147310000Y-93980000D03*
X147310000Y-96520000D03*
X147310000Y-99060000D03*
D16*
X149765000Y-118760000D03*
D17*
X149765000Y-116220000D03*
X149765000Y-113680000D03*
X149765000Y-111140000D03*
X149765000Y-108600000D03*
M02*
