G04 #@! TF.GenerationSoftware,KiCad,Pcbnew,6.0.2+dfsg-1*
G04 #@! TF.CreationDate,2025-06-22T13:16:20+00:00*
G04 #@! TF.ProjectId,MyCircuits,4d794369-7263-4756-9974-732e6b696361,rev?*
G04 #@! TF.SameCoordinates,Original*
G04 #@! TF.FileFunction,Legend,Top*
G04 #@! TF.FilePolarity,Positive*
%FSLAX46Y46*%
G04 Gerber Fmt 4.6, Leading zero omitted, Abs format (unit mm)*
G04 Created by KiCad (PCBNEW 6.0.2+dfsg-1) date 2025-06-22 13:16:20*
%MOMM*%
%LPD*%
G01*
G04 APERTURE LIST*
%ADD10C,0.150000*%
%ADD11C,0.120000*%
%ADD12C,2.500000*%
%ADD13C,1.600000*%
%ADD14O,1.600000X1.600000*%
%ADD15C,2.000000*%
%ADD16R,1.524000X1.524000*%
%ADD17C,1.524000*%
%ADD18R,1.800000X1.800000*%
%ADD19C,1.800000*%
%ADD20R,1.600000X1.600000*%
G04 APERTURE END LIST*
D10*
X194246666Y-123952380D02*
X193913333Y-123476190D01*
X193675238Y-123952380D02*
X193675238Y-122952380D01*
X194056190Y-122952380D01*
X194151428Y-123000000D01*
X194199047Y-123047619D01*
X194246666Y-123142857D01*
X194246666Y-123285714D01*
X194199047Y-123380952D01*
X194151428Y-123428571D01*
X194056190Y-123476190D01*
X193675238Y-123476190D01*
X194675238Y-123428571D02*
X195008571Y-123428571D01*
X195151428Y-123952380D02*
X194675238Y-123952380D01*
X194675238Y-122952380D01*
X195151428Y-122952380D01*
X195913333Y-123428571D02*
X195580000Y-123428571D01*
X195580000Y-123952380D02*
X195580000Y-122952380D01*
X196056190Y-122952380D01*
X196580000Y-122952380D02*
X196580000Y-123190476D01*
X196341904Y-123095238D02*
X196580000Y-123190476D01*
X196818095Y-123095238D01*
X196437142Y-123380952D02*
X196580000Y-123190476D01*
X196722857Y-123380952D01*
X197341904Y-122952380D02*
X197341904Y-123190476D01*
X197103809Y-123095238D02*
X197341904Y-123190476D01*
X197580000Y-123095238D01*
X197199047Y-123380952D02*
X197341904Y-123190476D01*
X197484761Y-123380952D01*
X82486666Y-123952380D02*
X82153333Y-123476190D01*
X81915238Y-123952380D02*
X81915238Y-122952380D01*
X82296190Y-122952380D01*
X82391428Y-123000000D01*
X82439047Y-123047619D01*
X82486666Y-123142857D01*
X82486666Y-123285714D01*
X82439047Y-123380952D01*
X82391428Y-123428571D01*
X82296190Y-123476190D01*
X81915238Y-123476190D01*
X82915238Y-123428571D02*
X83248571Y-123428571D01*
X83391428Y-123952380D02*
X82915238Y-123952380D01*
X82915238Y-122952380D01*
X83391428Y-122952380D01*
X84153333Y-123428571D02*
X83820000Y-123428571D01*
X83820000Y-123952380D02*
X83820000Y-122952380D01*
X84296190Y-122952380D01*
X84820000Y-122952380D02*
X84820000Y-123190476D01*
X84581904Y-123095238D02*
X84820000Y-123190476D01*
X85058095Y-123095238D01*
X84677142Y-123380952D02*
X84820000Y-123190476D01*
X84962857Y-123380952D01*
X85581904Y-122952380D02*
X85581904Y-123190476D01*
X85343809Y-123095238D02*
X85581904Y-123190476D01*
X85820000Y-123095238D01*
X85439047Y-123380952D02*
X85581904Y-123190476D01*
X85724761Y-123380952D01*
X82486666Y-50292380D02*
X82153333Y-49816190D01*
X81915238Y-50292380D02*
X81915238Y-49292380D01*
X82296190Y-49292380D01*
X82391428Y-49340000D01*
X82439047Y-49387619D01*
X82486666Y-49482857D01*
X82486666Y-49625714D01*
X82439047Y-49720952D01*
X82391428Y-49768571D01*
X82296190Y-49816190D01*
X81915238Y-49816190D01*
X82915238Y-49768571D02*
X83248571Y-49768571D01*
X83391428Y-50292380D02*
X82915238Y-50292380D01*
X82915238Y-49292380D01*
X83391428Y-49292380D01*
X84153333Y-49768571D02*
X83820000Y-49768571D01*
X83820000Y-50292380D02*
X83820000Y-49292380D01*
X84296190Y-49292380D01*
X84820000Y-49292380D02*
X84820000Y-49530476D01*
X84581904Y-49435238D02*
X84820000Y-49530476D01*
X85058095Y-49435238D01*
X84677142Y-49720952D02*
X84820000Y-49530476D01*
X84962857Y-49720952D01*
X85581904Y-49292380D02*
X85581904Y-49530476D01*
X85343809Y-49435238D02*
X85581904Y-49530476D01*
X85820000Y-49435238D01*
X85439047Y-49720952D02*
X85581904Y-49530476D01*
X85724761Y-49720952D01*
X194246666Y-50292380D02*
X193913333Y-49816190D01*
X193675238Y-50292380D02*
X193675238Y-49292380D01*
X194056190Y-49292380D01*
X194151428Y-49340000D01*
X194199047Y-49387619D01*
X194246666Y-49482857D01*
X194246666Y-49625714D01*
X194199047Y-49720952D01*
X194151428Y-49768571D01*
X194056190Y-49816190D01*
X193675238Y-49816190D01*
X194675238Y-49768571D02*
X195008571Y-49768571D01*
X195151428Y-50292380D02*
X194675238Y-50292380D01*
X194675238Y-49292380D01*
X195151428Y-49292380D01*
X195913333Y-49768571D02*
X195580000Y-49768571D01*
X195580000Y-50292380D02*
X195580000Y-49292380D01*
X196056190Y-49292380D01*
X196580000Y-49292380D02*
X196580000Y-49530476D01*
X196341904Y-49435238D02*
X196580000Y-49530476D01*
X196818095Y-49435238D01*
X196437142Y-49720952D02*
X196580000Y-49530476D01*
X196722857Y-49720952D01*
X197341904Y-49292380D02*
X197341904Y-49530476D01*
X197103809Y-49435238D02*
X197341904Y-49530476D01*
X197580000Y-49435238D01*
X197199047Y-49720952D02*
X197341904Y-49530476D01*
X197484761Y-49720952D01*
X183822380Y-70976666D02*
X183346190Y-71310000D01*
X183822380Y-71548095D02*
X182822380Y-71548095D01*
X182822380Y-71167142D01*
X182870000Y-71071904D01*
X182917619Y-71024285D01*
X183012857Y-70976666D01*
X183155714Y-70976666D01*
X183250952Y-71024285D01*
X183298571Y-71071904D01*
X183346190Y-71167142D01*
X183346190Y-71548095D01*
X183822380Y-70024285D02*
X183822380Y-70595714D01*
X183822380Y-70310000D02*
X182822380Y-70310000D01*
X182965238Y-70405238D01*
X183060476Y-70500476D01*
X183108095Y-70595714D01*
X192614761Y-85153333D02*
X192662380Y-85010476D01*
X192662380Y-84772380D01*
X192614761Y-84677142D01*
X192567142Y-84629523D01*
X192471904Y-84581904D01*
X192376666Y-84581904D01*
X192281428Y-84629523D01*
X192233809Y-84677142D01*
X192186190Y-84772380D01*
X192138571Y-84962857D01*
X192090952Y-85058095D01*
X192043333Y-85105714D01*
X191948095Y-85153333D01*
X191852857Y-85153333D01*
X191757619Y-85105714D01*
X191710000Y-85058095D01*
X191662380Y-84962857D01*
X191662380Y-84724761D01*
X191710000Y-84581904D01*
X191662380Y-84248571D02*
X192662380Y-84010476D01*
X191948095Y-83820000D01*
X192662380Y-83629523D01*
X191662380Y-83391428D01*
X191757619Y-83058095D02*
X191710000Y-83010476D01*
X191662380Y-82915238D01*
X191662380Y-82677142D01*
X191710000Y-82581904D01*
X191757619Y-82534285D01*
X191852857Y-82486666D01*
X191948095Y-82486666D01*
X192090952Y-82534285D01*
X192662380Y-83105714D01*
X192662380Y-82486666D01*
X183162380Y-96686666D02*
X182686190Y-97020000D01*
X183162380Y-97258095D02*
X182162380Y-97258095D01*
X182162380Y-96877142D01*
X182210000Y-96781904D01*
X182257619Y-96734285D01*
X182352857Y-96686666D01*
X182495714Y-96686666D01*
X182590952Y-96734285D01*
X182638571Y-96781904D01*
X182686190Y-96877142D01*
X182686190Y-97258095D01*
X182162380Y-96353333D02*
X182162380Y-95734285D01*
X182543333Y-96067619D01*
X182543333Y-95924761D01*
X182590952Y-95829523D01*
X182638571Y-95781904D01*
X182733809Y-95734285D01*
X182971904Y-95734285D01*
X183067142Y-95781904D01*
X183114761Y-95829523D01*
X183162380Y-95924761D01*
X183162380Y-96210476D01*
X183114761Y-96305714D01*
X183067142Y-96353333D01*
X173417142Y-97666666D02*
X173464761Y-97714285D01*
X173512380Y-97857142D01*
X173512380Y-97952380D01*
X173464761Y-98095238D01*
X173369523Y-98190476D01*
X173274285Y-98238095D01*
X173083809Y-98285714D01*
X172940952Y-98285714D01*
X172750476Y-98238095D01*
X172655238Y-98190476D01*
X172560000Y-98095238D01*
X172512380Y-97952380D01*
X172512380Y-97857142D01*
X172560000Y-97714285D01*
X172607619Y-97666666D01*
X172512380Y-97333333D02*
X172512380Y-96714285D01*
X172893333Y-97047619D01*
X172893333Y-96904761D01*
X172940952Y-96809523D01*
X172988571Y-96761904D01*
X173083809Y-96714285D01*
X173321904Y-96714285D01*
X173417142Y-96761904D01*
X173464761Y-96809523D01*
X173512380Y-96904761D01*
X173512380Y-97190476D01*
X173464761Y-97285714D01*
X173417142Y-97333333D01*
X192614761Y-97853333D02*
X192662380Y-97710476D01*
X192662380Y-97472380D01*
X192614761Y-97377142D01*
X192567142Y-97329523D01*
X192471904Y-97281904D01*
X192376666Y-97281904D01*
X192281428Y-97329523D01*
X192233809Y-97377142D01*
X192186190Y-97472380D01*
X192138571Y-97662857D01*
X192090952Y-97758095D01*
X192043333Y-97805714D01*
X191948095Y-97853333D01*
X191852857Y-97853333D01*
X191757619Y-97805714D01*
X191710000Y-97758095D01*
X191662380Y-97662857D01*
X191662380Y-97424761D01*
X191710000Y-97281904D01*
X191662380Y-96948571D02*
X192662380Y-96710476D01*
X191948095Y-96520000D01*
X192662380Y-96329523D01*
X191662380Y-96091428D01*
X191662380Y-95805714D02*
X191662380Y-95186666D01*
X192043333Y-95520000D01*
X192043333Y-95377142D01*
X192090952Y-95281904D01*
X192138571Y-95234285D01*
X192233809Y-95186666D01*
X192471904Y-95186666D01*
X192567142Y-95234285D01*
X192614761Y-95281904D01*
X192662380Y-95377142D01*
X192662380Y-95662857D01*
X192614761Y-95758095D01*
X192567142Y-95805714D01*
X183162380Y-83986666D02*
X182686190Y-84320000D01*
X183162380Y-84558095D02*
X182162380Y-84558095D01*
X182162380Y-84177142D01*
X182210000Y-84081904D01*
X182257619Y-84034285D01*
X182352857Y-83986666D01*
X182495714Y-83986666D01*
X182590952Y-84034285D01*
X182638571Y-84081904D01*
X182686190Y-84177142D01*
X182686190Y-84558095D01*
X182257619Y-83605714D02*
X182210000Y-83558095D01*
X182162380Y-83462857D01*
X182162380Y-83224761D01*
X182210000Y-83129523D01*
X182257619Y-83081904D01*
X182352857Y-83034285D01*
X182448095Y-83034285D01*
X182590952Y-83081904D01*
X183162380Y-83653333D01*
X183162380Y-83034285D01*
X173157142Y-85166666D02*
X173204761Y-85214285D01*
X173252380Y-85357142D01*
X173252380Y-85452380D01*
X173204761Y-85595238D01*
X173109523Y-85690476D01*
X173014285Y-85738095D01*
X172823809Y-85785714D01*
X172680952Y-85785714D01*
X172490476Y-85738095D01*
X172395238Y-85690476D01*
X172300000Y-85595238D01*
X172252380Y-85452380D01*
X172252380Y-85357142D01*
X172300000Y-85214285D01*
X172347619Y-85166666D01*
X172347619Y-84785714D02*
X172300000Y-84738095D01*
X172252380Y-84642857D01*
X172252380Y-84404761D01*
X172300000Y-84309523D01*
X172347619Y-84261904D01*
X172442857Y-84214285D01*
X172538095Y-84214285D01*
X172680952Y-84261904D01*
X173252380Y-84833333D01*
X173252380Y-84214285D01*
X177343333Y-58332380D02*
X177010000Y-57856190D01*
X176771904Y-58332380D02*
X176771904Y-57332380D01*
X177152857Y-57332380D01*
X177248095Y-57380000D01*
X177295714Y-57427619D01*
X177343333Y-57522857D01*
X177343333Y-57665714D01*
X177295714Y-57760952D01*
X177248095Y-57808571D01*
X177152857Y-57856190D01*
X176771904Y-57856190D01*
X178200476Y-57665714D02*
X178200476Y-58332380D01*
X177962380Y-57284761D02*
X177724285Y-57999047D01*
X178343333Y-57999047D01*
X192614761Y-72453333D02*
X192662380Y-72310476D01*
X192662380Y-72072380D01*
X192614761Y-71977142D01*
X192567142Y-71929523D01*
X192471904Y-71881904D01*
X192376666Y-71881904D01*
X192281428Y-71929523D01*
X192233809Y-71977142D01*
X192186190Y-72072380D01*
X192138571Y-72262857D01*
X192090952Y-72358095D01*
X192043333Y-72405714D01*
X191948095Y-72453333D01*
X191852857Y-72453333D01*
X191757619Y-72405714D01*
X191710000Y-72358095D01*
X191662380Y-72262857D01*
X191662380Y-72024761D01*
X191710000Y-71881904D01*
X191662380Y-71548571D02*
X192662380Y-71310476D01*
X191948095Y-71120000D01*
X192662380Y-70929523D01*
X191662380Y-70691428D01*
X192662380Y-69786666D02*
X192662380Y-70358095D01*
X192662380Y-70072380D02*
X191662380Y-70072380D01*
X191805238Y-70167619D01*
X191900476Y-70262857D01*
X191948095Y-70358095D01*
X173157142Y-72666666D02*
X173204761Y-72714285D01*
X173252380Y-72857142D01*
X173252380Y-72952380D01*
X173204761Y-73095238D01*
X173109523Y-73190476D01*
X173014285Y-73238095D01*
X172823809Y-73285714D01*
X172680952Y-73285714D01*
X172490476Y-73238095D01*
X172395238Y-73190476D01*
X172300000Y-73095238D01*
X172252380Y-72952380D01*
X172252380Y-72857142D01*
X172300000Y-72714285D01*
X172347619Y-72666666D01*
X173252380Y-71714285D02*
X173252380Y-72285714D01*
X173252380Y-72000000D02*
X172252380Y-72000000D01*
X172395238Y-72095238D01*
X172490476Y-72190476D01*
X172538095Y-72285714D01*
X112521904Y-87407619D02*
X112521904Y-86598095D01*
X112474285Y-86502857D01*
X112426666Y-86455238D01*
X112331428Y-86407619D01*
X112140952Y-86407619D01*
X112045714Y-86455238D01*
X111998095Y-86502857D01*
X111950476Y-86598095D01*
X111950476Y-87407619D01*
X111521904Y-87312380D02*
X111474285Y-87360000D01*
X111379047Y-87407619D01*
X111140952Y-87407619D01*
X111045714Y-87360000D01*
X110998095Y-87312380D01*
X110950476Y-87217142D01*
X110950476Y-87121904D01*
X110998095Y-86979047D01*
X111569523Y-86407619D01*
X110950476Y-86407619D01*
X188201904Y-64662380D02*
X188201904Y-63662380D01*
X188440000Y-63662380D01*
X188582857Y-63710000D01*
X188678095Y-63805238D01*
X188725714Y-63900476D01*
X188773333Y-64090952D01*
X188773333Y-64233809D01*
X188725714Y-64424285D01*
X188678095Y-64519523D01*
X188582857Y-64614761D01*
X188440000Y-64662380D01*
X188201904Y-64662380D01*
X189725714Y-64662380D02*
X189154285Y-64662380D01*
X189440000Y-64662380D02*
X189440000Y-63662380D01*
X189344761Y-63805238D01*
X189249523Y-63900476D01*
X189154285Y-63948095D01*
X154215714Y-104306666D02*
X154691904Y-104306666D01*
X154120476Y-104592380D02*
X154453809Y-103592380D01*
X154787142Y-104592380D01*
X155644285Y-104592380D02*
X155072857Y-104592380D01*
X155358571Y-104592380D02*
X155358571Y-103592380D01*
X155263333Y-103735238D01*
X155168095Y-103830476D01*
X155072857Y-103878095D01*
D11*
X179630000Y-67540000D02*
X179630000Y-74080000D01*
X182370000Y-67540000D02*
X182370000Y-74080000D01*
X182370000Y-74080000D02*
X182040000Y-74080000D01*
X182040000Y-67540000D02*
X182370000Y-67540000D01*
X179960000Y-67540000D02*
X179630000Y-67540000D01*
X179630000Y-74080000D02*
X179960000Y-74080000D01*
X191210000Y-86070000D02*
X191210000Y-81570000D01*
X184710000Y-81570000D02*
X184710000Y-86070000D01*
X187210000Y-87320000D02*
X188710000Y-87320000D01*
X188710000Y-80320000D02*
X187210000Y-80320000D01*
X178970000Y-93250000D02*
X178970000Y-99790000D01*
X178970000Y-99790000D02*
X179300000Y-99790000D01*
X181710000Y-93250000D02*
X181710000Y-99790000D01*
X181380000Y-93250000D02*
X181710000Y-93250000D01*
X181710000Y-99790000D02*
X181380000Y-99790000D01*
X179300000Y-93250000D02*
X178970000Y-93250000D01*
X176315000Y-99770000D02*
X176330000Y-99770000D01*
X174190000Y-99770000D02*
X174205000Y-99770000D01*
X176315000Y-95230000D02*
X176330000Y-95230000D01*
X174190000Y-99770000D02*
X174190000Y-95230000D01*
X174190000Y-95230000D02*
X174205000Y-95230000D01*
X176330000Y-99770000D02*
X176330000Y-95230000D01*
X191210000Y-98770000D02*
X191210000Y-94270000D01*
X187210000Y-100020000D02*
X188710000Y-100020000D01*
X188710000Y-93020000D02*
X187210000Y-93020000D01*
X184710000Y-94270000D02*
X184710000Y-98770000D01*
X181380000Y-80550000D02*
X181710000Y-80550000D01*
X178970000Y-87090000D02*
X179300000Y-87090000D01*
X179300000Y-80550000D02*
X178970000Y-80550000D01*
X181710000Y-87090000D02*
X181380000Y-87090000D01*
X181710000Y-80550000D02*
X181710000Y-87090000D01*
X178970000Y-80550000D02*
X178970000Y-87090000D01*
X173930000Y-87270000D02*
X173945000Y-87270000D01*
X173930000Y-82730000D02*
X173945000Y-82730000D01*
X176055000Y-87270000D02*
X176070000Y-87270000D01*
X176070000Y-87270000D02*
X176070000Y-82730000D01*
X176055000Y-82730000D02*
X176070000Y-82730000D01*
X173930000Y-87270000D02*
X173930000Y-82730000D01*
X174240000Y-58880000D02*
X180780000Y-58880000D01*
X180780000Y-58880000D02*
X180780000Y-59210000D01*
X174240000Y-59210000D02*
X174240000Y-58880000D01*
X180780000Y-61620000D02*
X180780000Y-61290000D01*
X174240000Y-61290000D02*
X174240000Y-61620000D01*
X174240000Y-61620000D02*
X180780000Y-61620000D01*
X188710000Y-67620000D02*
X187210000Y-67620000D01*
X184710000Y-68870000D02*
X184710000Y-73370000D01*
X191210000Y-73370000D02*
X191210000Y-68870000D01*
X187210000Y-74620000D02*
X188710000Y-74620000D01*
X176055000Y-74770000D02*
X176070000Y-74770000D01*
X173930000Y-74770000D02*
X173930000Y-70230000D01*
X176070000Y-74770000D02*
X176070000Y-70230000D01*
X173930000Y-70230000D02*
X173945000Y-70230000D01*
X176055000Y-70230000D02*
X176070000Y-70230000D01*
X173930000Y-74770000D02*
X173945000Y-74770000D01*
X139760000Y-114360000D02*
X83760000Y-114360000D01*
X83760000Y-114360000D02*
X83760000Y-58360000D01*
X83760000Y-58360000D02*
X139760000Y-58360000D01*
X139760000Y-58360000D02*
X139760000Y-114360000D01*
X191500000Y-61795000D02*
X191500000Y-58705000D01*
X191500000Y-58705170D02*
G75*
G03*
X185950000Y-60250462I-2560000J-1544830D01*
G01*
X185950000Y-60249538D02*
G75*
G03*
X191500000Y-61794830I2990000J-462D01*
G01*
X191440000Y-60250000D02*
G75*
G03*
X191440000Y-60250000I-2500000J0D01*
G01*
X161280000Y-62230000D02*
X163950000Y-62230000D01*
X163950000Y-97790000D02*
X163950000Y-59560000D01*
X161280000Y-97790000D02*
X161280000Y-100330000D01*
X161280000Y-97790000D02*
X163950000Y-97790000D01*
X161280000Y-97790000D02*
X161280000Y-62230000D01*
X145910000Y-103000000D02*
X163950000Y-103000000D01*
X145910000Y-59560000D02*
X145910000Y-103000000D01*
X161280000Y-100330000D02*
X163950000Y-100330000D01*
X148580000Y-100330000D02*
X145910000Y-100330000D01*
X148580000Y-62230000D02*
X145910000Y-62230000D01*
X163950000Y-103000000D02*
X163950000Y-100330000D01*
X148580000Y-100330000D02*
X148580000Y-62230000D01*
X163950000Y-59560000D02*
X145910000Y-59560000D01*
%LPC*%
D12*
X195580000Y-127000000D03*
X83820000Y-127000000D03*
X83820000Y-53340000D03*
X195580000Y-53340000D03*
D13*
X181000000Y-67000000D03*
D14*
X181000000Y-74620000D03*
D15*
X190210000Y-80570000D03*
X190210000Y-87070000D03*
X185710000Y-87070000D03*
X185710000Y-80570000D03*
D13*
X180340000Y-92710000D03*
D14*
X180340000Y-100330000D03*
D13*
X175260000Y-100000000D03*
X175260000Y-95000000D03*
D15*
X190210000Y-93270000D03*
X190210000Y-99770000D03*
X185710000Y-99770000D03*
X185710000Y-93270000D03*
D13*
X180340000Y-80010000D03*
D14*
X180340000Y-87630000D03*
D13*
X175000000Y-87500000D03*
X175000000Y-82500000D03*
X173700000Y-60250000D03*
D14*
X181320000Y-60250000D03*
D15*
X190210000Y-74370000D03*
X190210000Y-67870000D03*
X185710000Y-67870000D03*
X185710000Y-74370000D03*
D13*
X175000000Y-75000000D03*
X175000000Y-70000000D03*
D16*
X107950000Y-111760000D03*
D17*
X110490000Y-111760000D03*
X113030000Y-111760000D03*
X115570000Y-111760000D03*
D18*
X190210000Y-60250000D03*
D19*
X187670000Y-60250000D03*
D20*
X162550000Y-99060000D03*
D14*
X162550000Y-96520000D03*
X162550000Y-93980000D03*
X162550000Y-91440000D03*
X162550000Y-88900000D03*
X162550000Y-86360000D03*
X162550000Y-83820000D03*
X162550000Y-81280000D03*
X162550000Y-78740000D03*
X162550000Y-76200000D03*
X162550000Y-73660000D03*
X162550000Y-71120000D03*
X162550000Y-68580000D03*
X162550000Y-66040000D03*
X162550000Y-63500000D03*
X147310000Y-63500000D03*
X147310000Y-66040000D03*
X147310000Y-68580000D03*
X147310000Y-71120000D03*
X147310000Y-73660000D03*
X147310000Y-76200000D03*
X147310000Y-78740000D03*
X147310000Y-81280000D03*
X147310000Y-83820000D03*
X147310000Y-86360000D03*
X147310000Y-88900000D03*
X147310000Y-91440000D03*
X147310000Y-93980000D03*
X147310000Y-96520000D03*
X147310000Y-99060000D03*
D16*
X149765000Y-118760000D03*
D17*
X149765000Y-116220000D03*
X149765000Y-113680000D03*
X149765000Y-111140000D03*
X149765000Y-108600000D03*
M02*
